<svg width="14" height="14" viewBox="0 0 14 14" fill="none" xmlns="http://www.w3.org/2000/svg">
<path d="M12.4551 6.06268H9.25558C9.20058 6.06268 9.15559 6.10767 9.15559 6.16266V6.76257C9.15559 6.81756 9.20058 6.86255 9.25558 6.86255H12.4551C12.5101 6.86255 12.5551 6.81756 12.5551 6.76257V6.16266C12.5551 6.10767 12.5101 6.06268 12.4551 6.06268ZM10.7803 7.76241H9.25558C9.20058 7.76241 9.15559 7.80741 9.15559 7.8624V8.46231C9.15559 8.5173 9.20058 8.56229 9.25558 8.56229H10.7803C10.8353 8.56229 10.8803 8.5173 10.8803 8.46231V7.8624C10.8803 7.80741 10.8353 7.76241 10.7803 7.76241ZM6.60973 4.9441H6.06857C5.99108 4.9441 5.92859 5.00659 5.92859 5.08408V8.1836C5.92859 8.22859 5.94984 8.26984 5.98608 8.29608L7.84704 9.65337C7.90953 9.69837 7.99702 9.68587 8.04201 9.62338L8.36321 9.1847V9.18345C8.40821 9.12096 8.39446 9.03347 8.33197 8.98848L6.74846 7.84365V5.08408C6.74971 5.00659 6.68597 4.9441 6.60973 4.9441Z" fill="#E91B1B"/>
<path d="M10.7031 9.33562H9.9807C9.91071 9.33562 9.84447 9.37187 9.80698 9.43186C9.64825 9.68307 9.46328 9.91553 9.25081 10.128C8.88462 10.4942 8.45844 10.7816 7.98476 10.9816C7.49359 11.1891 6.97242 11.2941 6.435 11.2941C5.89633 11.2941 5.37516 11.1891 4.88524 10.9816C4.41156 10.7816 3.98538 10.4942 3.61918 10.128C3.25299 9.76181 2.96553 9.33562 2.76556 8.86195C2.5581 8.37202 2.45311 7.85085 2.45311 7.31219C2.45311 6.77352 2.5581 6.2536 2.76556 5.76242C2.96553 5.28875 3.25299 4.86256 3.61918 4.49637C3.98538 4.13018 4.41156 3.84272 4.88524 3.64275C5.37516 3.43528 5.89758 3.3303 6.435 3.3303C6.97367 3.3303 7.49483 3.43528 7.98476 3.64275C8.45844 3.84272 8.88462 4.13018 9.25081 4.49637C9.46328 4.70884 9.64825 4.9413 9.80698 5.19251C9.84447 5.2525 9.91071 5.28875 9.9807 5.28875H10.7031C10.7893 5.28875 10.8443 5.19876 10.8056 5.12252C9.9907 3.50152 8.33846 2.44794 6.49374 2.42669C3.79291 2.39294 1.5495 4.60385 1.5445 7.30219C1.5395 10.0055 3.73042 12.1989 6.43375 12.1989C8.30221 12.1989 9.98195 11.1416 10.8056 9.50185C10.8443 9.42561 10.7881 9.33562 10.7031 9.33562Z" fill="#E91B1B"/>
</svg>
