<svg width="16" height="15" viewBox="0 0 16 15" fill="none" xmlns="http://www.w3.org/2000/svg">
<path d="M12.3437 1.87202H3.10515C2.41768 1.87202 1.85867 2.40581 1.85867 3.06218V11.3933C1.85867 12.0496 2.41768 12.5834 3.10515 12.5834H12.3437C13.0312 12.5834 13.5902 12.0496 13.5902 11.3933V3.06218C13.5902 2.40581 13.0312 1.87202 12.3437 1.87202ZM12.3437 11.3933H3.10515C3.07171 11.3933 3.04884 11.3837 3.03886 11.3837C3.03476 11.3837 3.03241 11.3849 3.03183 11.3885L3.02479 3.08955C3.02889 3.0836 3.05529 3.06218 3.10515 3.06218H12.3437C12.3901 3.06277 12.4153 3.07884 12.417 3.06694L12.4241 11.3659C12.42 11.3718 12.3936 11.3933 12.3437 11.3933Z" fill="#A0A0A0"/>
<path d="M3.99112 4.00534H7.72388V7.84475H3.99112V4.00534ZM8.346 9.12455H3.99112V10.4044H11.4566V9.12455H8.96813H8.346ZM8.96813 6.56495H11.4566V7.84475H8.96813V6.56495ZM8.96813 4.00534H11.4566V5.28514H8.96813V4.00534Z" fill="#A0A0A0"/>
</svg>
