<svg width="11" height="10" viewBox="0 0 11 10" fill="none" xmlns="http://www.w3.org/2000/svg">
<path d="M2.81439 0.422157C2.81439 0.189006 3.0034 0 3.23655 0H10.2725C10.5057 0 10.6947 0.189006 10.6947 0.422157V1.26647C10.6947 1.49962 10.5057 1.68863 10.2725 1.68863H3.23655C3.0034 1.68863 2.81439 1.49962 2.81439 1.26647V0.422157Z" fill="#2E2F41"/>
<path d="M2.81439 4.15504C2.81439 3.92189 3.0034 3.73288 3.23655 3.73288H10.2725C10.5057 3.73288 10.6947 3.92189 10.6947 4.15504V4.99935C10.6947 5.2325 10.5057 5.42151 10.2725 5.42151H3.23655C3.0034 5.42151 2.81439 5.2325 2.81439 4.99935V4.15504Z" fill="#2E2F41"/>
<path d="M2.81439 7.8877C2.81439 7.65454 3.0034 7.46554 3.23655 7.46554H10.2725C10.5057 7.46554 10.6947 7.65454 10.6947 7.8877V8.73201C10.6947 8.96516 10.5057 9.15417 10.2725 9.15417H3.23655C3.0034 9.15417 2.81439 8.96516 2.81439 8.73201V7.8877Z" fill="#2E2F41"/>
<path d="M0.00100708 0.169023C0.00100708 0.0757628 0.0766096 0.000160217 0.16987 0.000160217H1.52077C1.61403 0.000160217 1.68964 0.0757627 1.68964 0.169023V1.51993C1.68964 1.61319 1.61403 1.68879 1.52077 1.68879H0.16987C0.0766096 1.68879 0.00100708 1.61319 0.00100708 1.51993V0.169023Z" fill="#2E2F41"/>
<path d="M0 3.90174C0 3.80848 0.0756025 3.73288 0.168863 3.73288H1.51977C1.61303 3.73288 1.68863 3.80848 1.68863 3.90174V5.25265C1.68863 5.34591 1.61303 5.42151 1.51977 5.42151H0.168863C0.0756025 5.42151 0 5.34591 0 5.25265V3.90174Z" fill="#2E2F41"/>
<path d="M0 7.6344C0 7.54114 0.0756025 7.46554 0.168863 7.46554H1.51977C1.61303 7.46554 1.68863 7.54114 1.68863 7.6344V8.9853C1.68863 9.07856 1.61303 9.15417 1.51977 9.15417H0.168863C0.0756025 9.15417 0 9.07856 0 8.9853V7.6344Z" fill="#2E2F41"/>
</svg>
