<svg width="15" height="11" viewBox="0 0 15 11" fill="none" xmlns="http://www.w3.org/2000/svg">
<path d="M3.82946 1.478C3.82946 1.13724 4.1057 0.861 4.44646 0.861H11.0061C11.3469 0.861 11.6231 1.13724 11.6231 1.478V10.3758C11.6231 10.7165 11.3469 10.9928 11.0061 10.9928H4.44646C4.1057 10.9928 3.82946 10.7165 3.82946 10.3758V1.478Z" fill="#2E2F41"/>
<path d="M0.958405 1.88706C0.958405 1.75076 1.0689 1.64026 1.2052 1.64026H2.27034C2.40664 1.64026 2.51714 1.75075 2.51714 1.88706V9.9665C2.51714 10.1028 2.40664 10.2133 2.27034 10.2133H1.2052C1.0689 10.2133 0.958405 10.1028 0.958405 9.9665V1.88706Z" fill="#2E2F41"/>
<path d="M12.9361 1.88706C12.9361 1.75076 13.0466 1.64026 13.1829 1.64026H14.2481C14.3844 1.64026 14.4949 1.75075 14.4949 1.88706V9.9665C14.4949 10.1028 14.3844 10.2133 14.2481 10.2133H13.1829C13.0466 10.2133 12.9361 10.1028 12.9361 9.9665V1.88706Z" fill="#2E2F41"/>
</svg>
