<svg width="7" height="8" viewBox="0 0 7 8" fill="none" xmlns="http://www.w3.org/2000/svg">
<path d="M5.9451 3.37181C5.78334 3.00775 5.54819 2.68098 5.25437 2.41196L5.01191 2.1895C5.00367 2.18215 4.99376 2.17694 4.98305 2.17431C4.97233 2.17169 4.96113 2.17174 4.95044 2.17445C4.93974 2.17717 4.92988 2.18247 4.92171 2.18988C4.91354 2.1973 4.90732 2.20661 4.90359 2.21699L4.79527 2.52778C4.72778 2.72275 4.60364 2.92188 4.42783 3.11769C4.41616 3.13018 4.40283 3.13352 4.39367 3.13435C4.3845 3.13518 4.37034 3.13352 4.35784 3.12185C4.34618 3.11185 4.34034 3.09686 4.34118 3.08186C4.372 2.58027 4.22203 2.01452 3.89375 1.39878C3.62212 0.887196 3.24468 0.488091 2.77308 0.209801L2.42897 0.00733196C2.38398 -0.0193306 2.32649 0.015664 2.32899 0.0681559L2.34732 0.468094C2.35981 0.741386 2.32815 0.983015 2.25316 1.18382C2.16151 1.42961 2.02987 1.65791 1.86156 1.86288C1.74443 2.00533 1.61167 2.13417 1.46579 2.24699C1.11443 2.51708 0.828728 2.86317 0.630081 3.25933C0.431923 3.65895 0.328702 4.09892 0.328461 4.54497C0.328461 4.93824 0.405949 5.31901 0.559258 5.67813C0.707291 6.02388 0.920918 6.33767 1.18833 6.60215C1.45829 6.86878 1.77157 7.07874 2.12068 7.22455C2.4823 7.3762 2.86557 7.45285 3.26134 7.45285C3.65711 7.45285 4.04039 7.3762 4.402 7.22539C4.75025 7.08043 5.06694 6.86903 5.33436 6.60298C5.60431 6.33636 5.81595 6.02474 5.96343 5.67896C6.11651 5.32083 6.19503 4.93527 6.19422 4.5458C6.19422 4.1392 6.1109 3.74426 5.9451 3.37181Z" fill="#E91B1B"/>
</svg>
